<svg width="800" height="800" viewBox="0 0 800 800" fill="none" xmlns="http://www.w3.org/2000/svg">
<g clip-path="url(#clip0_11_2)">
<path d="M680 0H120C53.7258 0 0 53.7258 0 120V680C0 746.274 53.7258 800 120 800H680C746.274 800 800 746.274 800 680V120C800 53.7258 746.274 0 680 0Z" fill="white"/>
<path d="M340.544 144.436C337.087 140.893 332.956 138.077 328.394 136.154C323.832 134.232 318.932 133.242 313.981 133.242C309.031 133.242 304.13 134.232 299.568 136.154C295.007 138.077 290.875 140.893 287.418 144.436H287.236C280.18 151.663 276.255 161.379 276.31 171.479C276.31 182.12 280.489 191.645 287.262 198.444L287.444 198.626C294.114 205.478 303.431 209.682 313.89 209.682C324.375 209.682 333.77 205.478 340.544 198.626L340.622 198.444C347.396 191.645 351.548 182.12 351.548 171.479C351.548 160.89 347.422 151.313 340.622 144.436H340.544ZM313.89 667.625C324.375 667.625 333.77 663.29 340.544 656.491L340.622 656.283C347.396 649.509 351.548 639.907 351.548 629.396C351.548 618.755 347.422 609.204 340.622 602.301H340.544C337.087 598.731 332.943 595.898 328.363 593.971C323.782 592.045 318.859 591.064 313.89 591.089C308.947 591.059 304.05 592.037 299.498 593.965C294.946 595.893 290.836 598.729 287.418 602.301H287.236C280.489 609.204 276.284 618.755 276.284 629.396C276.284 639.933 280.463 649.509 287.236 656.283L287.418 656.491C294.114 663.29 303.431 667.625 313.89 667.625ZM518.66 551.822C527.977 549.33 536.386 543.257 541.551 534.07L542.252 532.72C546.692 524.192 547.749 514.302 545.21 505.028C543.976 500.185 541.791 495.636 538.784 491.644C535.777 487.652 532.006 484.297 527.692 481.774L527.147 481.411C518.639 476.621 508.582 475.389 499.17 477.985C489.826 480.347 481.418 486.679 476.305 495.789C471.114 504.847 470.05 515.254 472.516 524.831C475.085 534.252 481.08 542.764 490.034 548.085H490.086C499.066 553.353 509.213 554.287 518.66 551.822ZM352.431 361.274C347.41 356.137 341.416 352.053 334.798 349.259C328.181 346.465 321.073 345.017 313.89 345.001C298.838 345.001 285.264 351.282 275.428 361.274C265.618 371.266 259.545 385.047 259.545 400.385C259.545 415.724 265.592 429.557 275.428 439.678C280.452 444.791 286.444 448.851 293.055 451.623C299.665 454.395 306.761 455.822 313.929 455.822C321.097 455.822 328.193 454.395 334.804 451.623C341.414 448.851 347.406 444.791 352.431 439.678C362.267 429.557 368.314 415.724 368.314 400.385C368.314 385.047 362.267 371.266 352.431 361.274ZM330.76 296.132C352.638 299.791 372.285 310.458 387.286 325.822H387.39C389.777 328.236 392.113 330.909 394.267 333.582L431.795 311.496C426.85 296.304 426.426 280.002 430.575 264.573C433.276 254.165 438.004 244.392 444.488 235.815C450.973 227.237 459.086 220.023 468.363 214.587L469.012 214.172C478.123 208.879 488.196 205.452 498.644 204.088C509.093 202.725 519.708 203.453 529.872 206.23C549.856 211.68 567.893 224.942 579.131 244.693V244.745C590.317 264.391 592.575 286.944 587.254 307.24C584.565 317.659 579.842 327.444 573.357 336.032C566.872 344.619 558.753 351.84 549.467 357.277L544.328 360.34H543.809C526.409 368.747 506.561 370.599 487.906 365.556C472.707 361.379 459.053 352.866 448.613 341.057L411.137 363.065C420.025 387.178 420.025 413.671 411.137 437.784L448.613 459.74C459.332 447.542 472.983 439.263 487.906 435.24C498.19 432.388 508.945 431.652 519.522 433.075C530.098 434.498 540.276 438.051 549.441 443.519L550.686 444.116V444.168C568.804 455.313 581.9 473.042 587.228 493.635C592.773 514.703 589.858 537.105 579.105 556.052L578.43 557.428L578.352 557.298C567.634 575.525 550.265 588.884 529.898 594.567C519.606 597.341 508.866 598.04 498.301 596.623C487.737 595.207 477.56 591.702 468.363 586.314V586.158C449.634 575.157 436.042 557.168 430.575 536.146C426.44 520.742 426.864 504.469 431.795 489.301L394.267 467.293C392.105 469.951 389.81 472.497 387.39 474.923L387.286 475.053C372.076 490.675 352.27 501.024 330.76 504.587V548.681C346.16 552 360.241 559.781 371.247 571.053L371.299 571.157C385.962 586.002 395.02 606.661 395.02 629.37C395.02 652.027 385.936 672.556 371.299 687.479L371.247 687.712C363.77 695.347 354.847 701.416 345 705.564C335.152 709.713 324.576 711.858 313.89 711.875C303.224 711.848 292.669 709.7 282.84 705.556C273.011 701.413 264.104 695.356 256.638 687.738H256.586V687.505C241.33 672.014 232.789 651.138 232.813 629.396C232.813 606.687 241.896 586.002 256.586 571.183V571.079H256.638C267.638 559.828 281.697 552.05 297.073 548.707V504.613C275.574 501.06 255.781 490.709 240.599 475.078L240.443 474.949C220.907 455.04 209.974 428.253 210 400.359C210 371.24 221.731 344.924 240.443 325.822H240.599C255.783 310.166 275.567 299.764 297.073 296.132V252.219C281.711 248.809 267.666 241.021 256.638 229.796H256.586V229.692C241.319 214.166 232.779 193.253 232.813 171.479C232.813 148.874 241.896 128.163 256.586 113.266L256.638 113.214C264.084 105.564 272.985 99.4805 282.817 95.322C292.65 91.1635 303.215 89.014 313.89 89C336.236 89 356.479 98.2134 371.247 113.188V113.24H371.299C385.962 128.137 395.02 148.848 395.02 171.453C395.02 194.188 385.936 214.717 371.299 229.666L371.247 229.796C360.2 241.023 346.138 248.812 330.76 252.219V296.132ZM541.525 266.831L541.214 266.338C536.243 257.829 528.138 251.605 518.634 249.001C513.852 247.688 508.854 247.346 503.938 247.997C499.021 248.648 494.284 250.278 490.008 252.79H490.06C481.054 257.981 475.007 266.519 472.49 276.044C470.024 285.517 471.088 295.976 476.279 305.086L476.461 305.319C481.651 314.325 489.93 320.346 499.144 322.786C508.409 325.459 518.738 324.317 527.64 319.048L528.133 318.815C536.581 313.66 542.695 305.424 545.184 295.846C547.802 286.068 546.488 275.653 541.525 266.831Z" fill="black"/>
</g>
<defs>
<clipPath id="clip0_11_2">
<rect width="800" height="800" fill="white"/>
</clipPath>
</defs>
</svg>
