<svg width="28" height="34" viewBox="0 0 28 34" fill="none" xmlns="http://www.w3.org/2000/svg">
<path d="M25.8101 16.012V16.025L24.7351 20.691C24.6771 20.955 24.4131 21.148 24.1091 21.148H22.8101C22.7633 21.1482 22.7178 21.1635 22.6803 21.1916C22.6428 21.2197 22.6154 21.2591 22.6021 21.304C21.4041 25.368 19.7821 28.161 17.6401 29.838C15.8181 31.266 13.5721 31.932 10.5711 31.932C7.87511 31.932 6.05711 31.065 4.51511 29.353C2.47711 27.091 1.63511 23.387 2.14511 18.925C3.06511 10.548 7.41011 2.09499 15.7761 2.09499C18.3211 2.07299 20.3191 2.85799 21.7091 4.42499C23.1791 6.08299 23.9251 8.57899 23.9291 11.847C23.9255 11.9902 23.866 12.1264 23.7635 12.2265C23.661 12.3266 23.5234 12.3828 23.3801 12.383H17.2501C17.1427 12.3797 17.0406 12.3354 16.9649 12.2591C16.8892 12.1828 16.8456 12.0804 16.8431 11.973C16.7931 9.71299 16.1231 8.61299 14.7911 8.61299C12.4411 8.61299 11.0551 11.803 10.3201 13.571C9.29311 16.041 8.77011 18.724 8.87311 21.396C8.92211 22.64 9.12211 24.389 10.3031 25.114C11.3501 25.756 12.8441 25.33 13.7491 24.619C14.6531 23.907 15.3811 22.676 15.6871 21.553C15.7301 21.397 15.7331 21.276 15.6921 21.222C15.6491 21.166 15.5301 21.153 15.4391 21.153H13.8651C13.7818 21.1533 13.6994 21.1353 13.6238 21.1004C13.5481 21.0655 13.481 21.0145 13.4271 20.951C13.3858 20.9014 13.3564 20.8429 13.3413 20.7802C13.3262 20.7174 13.3258 20.652 13.3401 20.589L14.4161 15.915C14.4691 15.676 14.6861 15.495 14.9531 15.463V15.451H25.2831C25.3071 15.451 25.3321 15.451 25.3551 15.456C25.6231 15.491 25.8121 15.74 25.8071 16.012H25.8101Z" fill="#FFFCE1"/>
</svg>
