<svg width="800" height="800" viewBox="0 0 800 800" fill="none" xmlns="http://www.w3.org/2000/svg">
<g clip-path="url(#clip0_11_2)">
<path d="M680 0H120C53.7258 0 0 53.7258 0 120V680C0 746.274 53.7258 800 120 800H680C746.274 800 800 746.274 800 680V120C800 53.7258 746.274 0 680 0Z" fill="white"/>
<path d="M379.361 92.1655C378.039 92.2858 373.829 92.7066 370.041 93.0072C282.692 100.883 200.872 148.014 149.051 220.456C120.195 260.734 101.739 306.424 94.7654 354.818C92.3006 371.712 92 376.701 92 399.605C92 422.511 92.3006 427.5 94.7654 444.392C111.478 559.879 193.658 656.908 305.116 692.857C325.075 699.289 346.116 703.679 370.041 706.323C379.361 707.346 419.639 707.346 428.959 706.323C470.258 701.754 505.247 691.535 539.753 673.921C545.045 671.215 546.065 670.495 545.345 669.892C544.863 669.531 522.321 639.294 495.266 602.742L446.091 536.312L384.471 445.115C350.564 394.977 322.67 353.977 322.43 353.977C322.189 353.916 321.949 394.436 321.828 443.911C321.648 530.541 321.588 534.029 320.506 536.071C318.943 539.018 317.74 540.22 315.216 541.542C313.292 542.505 311.609 542.685 302.531 542.685H292.13L289.365 540.942C287.562 539.799 286.239 538.295 285.337 536.553L284.075 533.847L284.195 413.312L284.375 292.717L286.239 290.372C287.201 289.11 289.245 287.487 290.688 286.705C293.152 285.503 294.114 285.383 304.515 285.383C316.779 285.383 318.823 285.863 322.009 289.35C322.91 290.312 356.276 340.57 396.194 401.109C436.11 461.646 490.697 544.307 517.511 584.887L566.206 658.651L568.671 657.029C590.493 642.84 613.579 622.64 631.852 601.599C670.748 556.932 695.817 502.466 704.235 444.392C706.7 427.5 707 422.511 707 399.605C707 376.701 706.7 371.712 704.235 354.818C687.522 239.333 605.341 142.303 493.885 106.353C474.225 99.9808 453.305 95.5922 429.861 92.947C424.087 92.3459 384.35 91.6846 379.361 92.1655ZM505.247 278.168C508.132 279.611 510.477 282.377 511.317 285.262C511.799 286.825 511.919 320.251 511.799 395.577L511.62 503.668L492.562 474.451L473.444 445.235V366.662C473.444 315.862 473.684 287.306 474.046 285.924C475.007 282.557 477.11 279.912 479.996 278.349C482.461 277.086 483.363 276.966 492.803 276.966C501.7 276.966 503.263 277.086 505.247 278.168Z" fill="black"/>
</g>
<defs>
<clipPath id="clip0_11_2">
<rect width="800" height="800" fill="white"/>
</clipPath>
</defs>
</svg>
