<svg width="800" height="800" viewBox="0 0 800 800" fill="none" xmlns="http://www.w3.org/2000/svg">
<g clip-path="url(#clip0_11_2)">
<path d="M680 0H120C53.7258 0 0 53.7258 0 120V680C0 746.274 53.7258 800 120 800H680C746.274 800 800 746.274 800 680V120C800 53.7258 746.274 0 680 0Z" fill="white"/>
<path fill-rule="evenodd" clip-rule="evenodd" d="M274.401 250.544C272.393 233.149 288.048 240.523 286.049 251.01C283.111 253.805 277.684 251.513 274.401 250.544ZM293.036 247.282C296.979 246.88 300.738 246.288 301.89 243.09C296.436 239.728 288.286 248.023 291.639 251.944C293.5 251.786 291.854 248.121 293.036 247.282ZM240.855 257.998C244.138 256.471 249.533 257.048 251.106 253.806C241.332 250.402 223.732 252.915 220.819 259.397C228.269 258.936 234.5 253.024 240.855 257.998ZM218.955 259.864C216.838 259.419 216.022 261.824 217.093 263.124C218.747 263.069 218.968 261.582 218.955 259.864ZM213.83 269.183C213.532 264.738 202.781 261.19 201.717 267.319C202.648 270.799 211.319 273.038 213.83 269.183ZM195.661 264.991C193.44 265.094 192.299 266.289 191 267.319C192.69 268.304 196.433 267.951 195.661 264.991ZM190.071 277.568C198.278 276.991 200.776 284.538 207.773 283.625C209.077 275.502 192.384 264.329 190.071 277.568ZM300.957 318.1C298.51 309.98 306.003 303.01 301.422 296.667C295.08 297.173 289.595 326.608 298.627 326.49C305.112 326.4 307.399 308.596 307.943 302.729C303.195 305.428 305.264 314.954 300.957 318.1ZM223.15 314.843C223.291 313.611 222.504 313.311 221.286 313.441C221.317 314.698 222.35 315.682 223.15 314.843ZM245.98 328.353C246.07 325.467 245.956 322.786 243.652 322.297C241.897 322.098 242.002 323.753 240.855 324.162C241.495 326.625 242.795 328.434 245.98 328.353ZM223.616 343.264C232.549 344.269 238.531 350.713 246.911 350.716C240.228 346.217 233.285 341.98 222.683 341.399C222.346 342.67 223.609 342.337 223.616 343.264ZM293.969 350.252C293.274 347.062 291.89 344.561 290.243 342.329C290.849 345.604 291.685 348.65 293.969 350.252ZM242.717 360.5C236.87 352.676 227.553 345.857 217.093 344.193C218.57 356.692 232.464 356.781 242.717 360.5ZM226.878 363.294C222.885 356.573 216.039 352.701 207.773 350.252C212.419 356.025 216.674 364.63 226.878 363.294ZM205.444 356.775C207.035 359.536 211.034 362.359 210.105 366.092C206.02 364.898 204.033 361.602 199.854 360.502C202.073 363.584 210.544 377.248 215.693 376.812C218.98 376.527 220.466 372.899 219.886 367.027C217.368 361.62 209.351 359.235 205.444 356.775ZM229.206 368.888C230.242 371.736 230.606 375.253 234.333 375.409C233.698 372.162 231.802 370.174 229.206 368.888ZM225.944 370.288C224.207 370.098 223.212 370.656 223.151 372.148C223.673 372.25 223.876 372.664 224.081 373.079C225.57 373.021 226.134 372.025 225.944 370.288ZM305.616 381.001C306.101 378.368 306.595 373.295 305.616 370.75C305.018 373.368 302.768 379.255 305.616 381.001ZM273.003 371.216C273.359 373.97 272.027 378.406 274.4 379.141C274.504 377.103 274.979 372.512 273.003 371.216ZM294.9 381.934C293.548 380.735 291.608 382.547 290.707 381.47C289.754 378.385 290.149 373.954 287.446 372.616C287.138 372.616 286.825 372.616 286.516 372.616C282.679 380.564 283.057 397.638 289.776 401.966C291.044 404.116 291.168 407.409 294.435 407.56C297.12 405.428 297.78 401.279 298.163 396.841C292.332 395.616 297.764 385.564 294.9 381.934ZM308.879 387.056C309.453 382.931 312.98 376.931 310.276 372.616C309.384 376.699 307.694 382.453 308.879 387.056ZM226.878 390.788C227.62 388.659 227.037 385.047 225.479 383.798C224.392 385.838 223.76 390.536 226.878 390.788ZM235.263 392.65C237.145 393.874 237.289 396.834 239.923 397.309C243.201 393.125 236.983 385.751 235.263 392.65ZM314.935 401.966C314.938 403.394 313.067 405.348 314.47 406.624C314.739 405.47 316.157 403.069 314.935 401.966ZM319.127 420.137C319.107 417.986 319.389 415.533 318.197 414.549C317.988 416.208 316.758 419.882 319.127 420.137ZM259.957 439.243C260.233 440.978 260.516 442.719 262.286 442.969C263.428 441.371 262.585 438.539 259.957 439.243ZM280.923 441.574C281.571 442.804 283.433 445.248 284.649 444.364C283.571 443.569 282.327 440.497 280.923 441.574ZM325.183 446.7C323.875 452.247 326.973 457.301 329.378 460.676C330.362 455.268 330.27 447.523 325.183 446.7ZM336.834 482.568C337.538 481.159 337.787 476.818 336.368 476.053C335.141 477.736 334.047 481.764 336.834 482.568ZM357.796 504.937C357.121 501.513 354.439 497.816 351.741 497.944C352.685 501.347 352.849 505.537 357.796 504.937ZM361.993 511.458C362.013 513.613 361.733 516.073 362.923 517.046C362.984 514.818 362.952 512.672 361.993 511.458ZM208.239 511.925C208.246 513.631 209.159 514.422 210.105 515.187C209.919 513.66 209.7 512.176 208.239 511.925ZM378.766 537.547C377.619 528.761 372.998 523.444 367.119 519.381C367.96 528.474 372.416 533.963 378.766 537.547ZM453.78 583.675C453.496 583.411 451.567 582.588 451.449 583.675C452.149 584.214 453.411 585.311 453.78 583.675ZM690 618.153C690 619.865 690 621.567 690 623.279C689.243 624.853 688.997 626.934 688.6 628.868C675.644 637.188 651.304 634.125 640.61 644.712C621.853 634.607 604.421 650.523 584.704 652.169C581.447 652.438 577.824 651.895 574.447 652.169C562.798 653.11 551.421 655.834 539.507 656.826C527.29 657.844 515.048 658.59 502.235 659.157C497.573 659.157 492.917 659.157 488.258 659.157C430.471 656.123 373.336 648.349 330.777 629.336C309.56 619.856 290.03 608.226 272.073 594.391C254.597 580.935 236.659 565.975 224.081 549.2C210.689 531.337 197.291 513.966 185.41 494.224C173.948 475.17 163.234 455.098 153.729 432.72C144.352 410.654 137.671 388.818 131.362 361.901C127.238 344.296 122.886 324.364 115.522 307.856C112.654 301.427 109.316 296.165 109 290.149C109 288.753 109 287.352 109 285.957C111.298 266.387 126.517 255.027 144.409 249.613C148.889 248.259 153.245 246.965 157.455 244.487C157.729 244.329 160.413 244.055 159.321 242.625C151.349 240.707 144.791 252.443 136.025 249.148C128.242 246.221 132.723 234.172 141.15 230.512C145.084 228.803 152.895 228.358 156.524 226.318C162.779 222.803 165.618 215.375 164.446 208.613C163.751 204.618 159.605 202.515 159.787 199.295C160.041 194.805 168.07 190.9 171.899 188.112C176.584 184.703 182.131 180.443 181.684 175.067C181.213 169.45 174.607 167.66 171.433 163.419C166.449 156.764 165.659 146.815 173.761 142.916C182.256 138.829 198.081 141.056 199.854 151.77C201.416 161.213 194.713 164.81 197.522 171.804C202.757 184.817 243.466 164.218 233.401 191.373C242.353 205.407 277.339 193.402 278.128 215.601C292.72 215.895 299.426 226.968 311.208 231.443C314.365 232.641 318.125 232.641 321.459 233.771C341.329 240.525 365.951 247.77 374.107 266.852C366.737 271.817 356.679 268.492 348.017 265.454C340.483 262.809 329.499 257.569 321.925 260.794C314.415 263.992 314.816 276.823 315.868 289.679C318.665 323.904 320.306 359.207 325.185 389.852C331.999 432.628 346.563 466.889 367.12 493.754C387.006 519.744 410.367 546.96 440.732 565.972C466.353 582.009 495.14 594.663 531.588 602.776C536.993 603.983 543.527 606.616 546.496 606.038C550.897 605.193 560.368 592.394 563.739 589.268C571.754 581.816 582.538 571.39 594.018 580.412C592.458 592.834 581.328 595.685 578.643 606.974C585.545 611.366 592.865 607.39 601.476 607.901C611.495 608.497 619.177 614.242 627.571 613.026C632.927 612.251 635.608 608.261 639.683 605.575C648.94 619.108 684.632 601.491 690 618.153ZM588.892 583.675C588.694 582.172 589.507 579.647 587.962 579.487C586.618 580.168 585.29 584.451 588.892 583.675ZM354.54 255.67C359.104 258.403 363.122 261.686 367.119 264.992C369.525 257.907 362.62 253.375 354.54 253.807C354.54 254.426 354.54 255.048 354.54 255.67ZM479.871 599.051C481.648 599.425 482.934 599.779 483.133 597.655C481.473 597.547 480.344 597.964 479.871 599.051ZM415.572 558.048C415.415 560.242 419.842 560.284 420.702 559.911C419.974 558.455 417.766 556.564 415.572 558.048ZM404.39 549.197C405.166 549.982 407.127 549.566 408.583 549.665C408.739 547.958 408.063 547.075 407.652 545.934C405.203 545.666 404.527 547.159 404.39 549.197ZM314.935 358.635C313.67 357.564 312.753 359.526 312.139 358.635C313.657 347.076 316.096 329.28 311.208 319.502C309.999 318.447 308.087 319.873 307.482 319.034C310.735 311.268 312.931 295.072 311.674 285.488C311.232 282.11 309.477 276.102 307.482 274.772C302.468 271.434 297.905 276.564 294.434 277.568C292.25 278.205 289.821 277.75 287.446 278.032C278.051 279.164 268.082 281.966 261.822 285.02C265.085 287.195 269.71 288.003 271.138 292.008C263.02 291.433 256.687 289.071 249.705 287.35C250.45 297.862 237.559 294.568 229.672 295.273C232.397 295.332 232.833 296.649 232.934 298.533C233.258 304.717 212.909 312.046 205.911 307.389C195.929 315.436 210.303 323.657 209.638 333.946C207.675 335.4 206.769 337.909 204.978 339.532C195.058 339.773 184.624 341.769 186.339 352.114C184.998 351.332 182.883 350.81 181.213 351.646C178.678 358.178 182.935 365.268 188.671 366.558C190.116 366.138 190.452 364.613 192.398 364.695C205.355 367.172 209.916 375.766 209.172 392.18C209.042 395.007 209.323 398.695 207.308 400.57C199.955 400.066 193.138 381.918 204.977 381.469C202.138 377.291 199.988 371.06 194.726 371.215C188.694 371.395 185.987 380.927 181.68 384.262C187.888 387.692 202.468 397.159 190.532 403.365C196.441 404.25 199.738 406.594 202.179 409.884C206.247 415.378 206.118 423.61 209.169 428.059C215.344 437.066 218.604 419.979 225.94 427.123C227.672 427.719 225.177 425.44 225.009 425.264C218.715 418.469 209.117 412.901 205.441 404.763C208.266 403.468 212.054 404.881 214.758 405.227C215.826 399.754 212.023 393.559 213.36 389.382C214.323 386.387 216.1 387.706 218.021 386.59C219.15 385.932 218.266 383.486 220.351 384.261C220.339 390.658 216.485 401.423 220.814 406.158C227.137 407.293 228.963 396.42 234.328 396.374C237.325 396.348 240.158 401.624 242.247 404.295C244.758 407.5 248.17 411.438 247.373 415.008C245.695 422.535 233.054 416.805 228.737 413.61C231.368 424.054 247.557 425.676 248.304 439.241C248.389 440.754 247.625 442.687 247.839 444.362C248.754 451.52 255.43 456.84 262.281 452.287C263.288 454.854 263.42 458.296 266.012 459.275C268.281 457.355 267.475 452.352 268.805 449.487C276.934 451.19 281.179 455.104 283.713 461.601C284.968 464.815 284.644 470.773 289.77 470.92C290.554 462.977 284.331 458.055 283.249 450.419C287.425 457.156 302.489 464.447 301.887 475.114C301.486 482.15 293.125 482.915 285.113 483.965C292.749 486.589 295.947 495.142 304.215 497.941C306.437 498.698 309.291 498.05 311.669 498.877C317.719 500.981 327.393 513.384 324.717 521.241C311.826 527.738 301.768 510.178 287.442 510.527C293.483 518.229 303.365 520.792 311.67 524.504C320.609 528.495 329.56 532.584 338.228 536.617C358.662 546.121 372.846 558.556 386.219 574.356C376.94 579.416 348.816 571 365.718 565.033C359.839 564.834 353.616 561.147 348.477 563.175C351.201 580.953 374.591 578.064 392.276 580.877C390.666 583.926 388.396 586.319 386.683 589.265C388.046 590.068 389.93 590.362 392.276 590.196C391.143 592.012 388.195 592.016 388.08 594.853C390.345 597.869 394.828 598.669 397.865 600.91C409.839 592.323 411.181 611.803 418.831 612.092C426.06 612.361 427.446 601.974 434.676 600.91C432.859 604.688 429.304 606.721 427.688 610.697C434.767 608.986 436.785 605.174 442.59 603.704C463.395 598.441 480.45 615.77 497.569 617.686C503.725 618.371 509.844 621.828 515.275 622.811C522.297 624.078 526.615 621.766 532.047 619.085C523.773 611.36 504.775 614.368 498.038 605.104C498.298 603.502 499.394 602.736 500.368 601.846C478.561 606.637 464.831 593.568 455.64 581.345C428.736 574.396 405.134 564.14 393.67 541.743C393.119 539.634 395.735 540.703 395.071 538.48C385.613 527.955 376.159 517.27 368.514 504.933C365.871 500.674 364.063 495.321 361.058 491.889C359.154 489.714 355.96 488.517 354.07 486.295C351.999 483.86 351.717 480.81 348.476 479.776C347.23 481.633 348.065 485.572 347.081 487.695C344.84 478.698 339.847 470.153 330.308 469.988C330.13 463.445 335.416 462.367 338.227 458.806C334.527 454.357 333.636 448.754 331.705 442.036C327.012 425.71 323.133 408.655 319.123 393.578C313.809 395.562 312.4 401.452 309.807 406.158C310.063 399.427 310.378 392.751 314.001 389.382C315.658 389.59 315.84 391.274 316.795 392.179C317.67 389.005 320.674 386.044 319.123 381.93C317.92 380.072 314.404 380.939 313.535 380.999C315.834 375.372 317.765 365.16 314.935 358.635ZM502.234 634.929C506.263 633.208 509.888 631.09 511.548 627.004C507.17 628.102 500.996 629.756 502.234 634.929ZM502.698 625.609C500.004 627.102 496.972 628.271 495.246 630.735C499.109 630.966 503.634 627.089 502.698 625.609ZM488.257 632.597C490.895 631.893 493.718 629.169 493.383 627.004C490.32 627.311 485.582 629.496 488.257 632.597ZM490.121 621.879C485.928 620.554 482.504 623.837 482.196 627.94C485.932 627.014 488.461 624.882 490.121 621.879ZM477.072 622.815C472.976 623.529 469.913 625.273 468.684 628.867C473.69 630.853 476.253 626.551 477.072 622.815ZM470.551 634.929C471.705 634.995 472.81 635.013 472.882 633.993C472.183 633.254 470.225 633.311 470.551 634.929ZM478.007 614.891C471.488 614.391 463.691 618.621 467.756 624.21C472.097 622.026 476.494 619.903 478.007 614.891ZM445.856 623.747C449.927 624.319 450.992 619.662 453.781 620.479C455.399 621.5 454.415 625.127 457.038 625.142C463.132 623.903 465.327 615.587 461.696 609.767C453.483 611.212 445.968 615.732 445.856 623.747ZM447.718 611.632C445.245 612.885 442.612 613.973 441.199 616.29C444.247 616.158 448.787 612.796 447.718 611.632ZM434.678 613.963C434.939 615.203 432.759 616.333 434.205 617.221C434.593 616.635 437.043 614.332 434.678 613.963ZM426.291 625.141C426.144 625.775 425.624 626.03 425.828 627.004C426.443 627.004 427.067 627.004 427.691 627.004C427.818 625.784 427.515 625.003 426.291 625.141ZM419.303 622.815C416.948 622.947 416.058 624.541 416.04 627.004C418.068 626.554 419.917 625.916 419.303 622.815ZM372.24 599.051C369.369 598.924 368.493 599.368 371.777 599.987C374.905 600.564 380.423 600.866 382.494 599.987C380.035 599.959 373.68 599.118 372.24 599.051ZM386.221 591.599C383.784 589.746 378.883 591.088 376.437 592.063C377.848 595.94 384.777 594.218 386.221 591.599ZM371.314 626.541C382.934 632.63 398.934 639.278 415.572 637.255C403.482 631.335 385.501 628.81 371.314 626.541ZM354.073 621.415C355.186 622.943 357.815 622.952 359.661 623.747C363.101 620.422 355.541 618.55 354.073 621.415ZM310.275 583.675C307.13 583.949 303.708 583.94 302.821 586.474C305.817 587.585 310.153 586.895 310.275 583.675ZM301.422 595.789C302.517 596.781 304.53 597.964 305.15 595.789C304.668 595.296 301.824 594.829 301.422 595.789ZM307.013 556.185C307.436 554.238 303.726 553.501 303.287 555.255C304.308 555.783 305.193 556.455 307.013 556.185ZM313.072 572.025C313.05 571.386 313.292 571.004 313.537 570.629C312.149 569.196 309.342 568.941 307.013 569.698C307.386 571.939 311.118 572.875 313.072 572.025ZM313.538 601.85C314.134 602.484 315.737 602.484 316.333 601.85C316.553 600.384 315.751 599.944 314.936 599.514C314.517 600.342 313.81 600.875 313.538 601.85ZM327.983 548.266C326.465 543.879 321.516 545.036 318.197 543.608C312.863 541.31 308.31 535.825 301.423 535.689C301.114 535.689 300.801 535.689 300.494 535.689C306.484 542.747 314.411 550.332 327.983 548.266ZM303.752 531.032C299.404 528.077 294.64 525.538 288.377 524.508C290.368 529.505 298.118 531.226 303.752 531.032ZM318.196 552.923C321.462 556.338 325.562 558.919 332.64 558.513C329.919 554.862 323.418 552.521 318.196 552.923ZM335.901 573.893C331.104 570.568 323.559 565.174 317.264 566.435C320.905 571.183 328.224 574.738 335.901 573.893ZM318.196 591.599C318.083 592.262 317.429 592.38 317.264 592.989C318.413 594.488 320.141 591.911 318.196 591.599ZM328.912 605.576C329.307 607.353 331.018 607.817 332.64 608.37C333.271 607.293 334.511 606.824 334.037 604.645C332.905 603.963 328.832 603.571 328.912 605.576ZM337.765 585.075C336.322 584.191 331.061 583.203 329.843 585.075C332.103 585.992 336.543 588.366 337.765 585.075ZM339.163 569.23C339.629 565.764 335.708 565.75 334.037 566.899C334.194 569.23 337.278 568.635 339.163 569.23ZM344.287 544.072C342.182 540.894 336.337 541.461 332.174 540.346C329.124 536.517 321.833 535.126 315.401 536.153C322.767 541.06 331.146 544.946 344.287 544.072ZM343.356 588.8C345.357 590.527 348.494 591.117 351.276 592.063C351.425 590.966 352.011 590.313 351.741 588.8C350.385 587.235 344.499 586.427 343.356 588.8ZM303.752 513.32C304.219 511.146 302.94 510.72 300.957 510.994C300.254 513.405 302.578 512.786 303.752 513.32ZM314.935 518.914C313.574 518.568 314.032 516.403 312.139 516.583C310.422 518.158 313.515 520.555 314.935 518.914ZM282.787 522.176C281.24 518.757 277.755 517.269 275.333 514.719C279.876 508.138 269.739 505.443 267.877 500.743C267.856 499.325 268.861 498.931 269.275 497.943C265.36 495.65 260.839 493.958 258.557 490.029C260.36 488.725 265.163 490.417 266.943 489.093C264.121 487.878 261.074 486.89 259.955 483.968C261.589 480.165 268.231 481.376 269.739 477.447C261.713 475.674 253.739 471.41 245.043 471.854C245.142 475.173 248.096 475.636 249.236 477.911C246.659 476.766 244.574 475.116 240.851 475.116C240.573 477.414 242.061 477.944 241.785 480.242C239.244 480.45 237.955 479.411 235.26 479.779C237.181 484.066 242.109 485.352 243.648 490.03C241.743 490.512 239.156 489.273 238.523 490.03C243.441 494.115 250.625 498.422 253.43 503.07C248.853 502.22 246.234 499.401 241.785 498.413C245.509 505.789 254.579 507.326 261.352 510.994C268.285 514.747 274.498 520.8 282.787 522.176ZM272.536 527.765C274.483 528.829 278.36 532.209 280.923 529.633C278.763 528.676 275.364 526.502 272.536 527.765ZM268.81 525.433C267.499 523.311 260.81 522.18 259.027 523.57C262.067 524.445 264.933 526.804 268.81 525.433ZM260.422 526.833C260.275 527.466 259.76 527.721 259.957 528.701C260.777 528.432 262.694 529.258 262.753 528.233C262.03 527.713 261.781 526.719 260.422 526.833ZM254.365 464.865C253.094 460.487 251.397 455.689 247.844 452.288C245.93 450.454 244.077 450.491 242.718 448.089C239.117 441.754 240.843 432.809 236.195 426.198C235.096 425.839 232.975 425.275 232.002 426.198C232.09 429.253 239.18 436.496 234.334 440.174C223.619 440.6 219.494 432.07 209.175 433.649C206.851 439.668 215.067 442.761 212.9 447.163C227.721 451.921 239.493 462.227 254.365 464.865ZM220.819 478.842C223.557 480.927 227.514 484.261 231.07 483.968C228.253 481.972 225.662 477.273 220.819 478.842ZM215.693 474.653C214.485 470.893 212.389 468.019 207.773 467.666C208.712 471.693 213.088 472.29 215.693 474.653ZM207.773 486.767C210.268 488.473 212.745 492.658 215.228 492.824C213.412 490.445 211.2 485.987 207.773 486.767ZM211.036 454.615C211.277 453.925 211.723 453.443 211.967 452.752C210.772 451.107 207.826 452.005 207.309 453.687C208.226 454.322 209.97 454.133 211.036 454.615ZM283.254 473.253C283.188 469.244 278.734 466.917 275.333 469.063C276.41 472.024 279.659 472.809 283.254 473.253ZM239.454 412.223C239.532 411.452 236.585 411.452 236.66 412.223C237.299 412.364 239.471 414.326 239.454 412.223ZM221.287 410.355C220.665 410.355 220.043 410.355 219.421 410.355C218.781 410.954 218.961 412.383 218.955 413.612C219.807 413.74 221.568 415.295 222.218 414.084C221.065 413.678 222.353 410.841 221.287 410.355ZM186.34 409.886C187.884 413.4 194.134 413.139 195.193 409.424C192.542 408.397 188.636 409.111 186.34 409.886ZM187.741 396.841C185.938 396.751 184.306 396.826 183.078 397.309C183.44 399.342 187.728 398.98 187.741 396.841ZM191.931 321.831C189.537 322.937 184.543 320.722 182.149 321.831C184.269 330.225 199.986 325.705 198.923 319.034C198.02 313.374 183.074 314.776 177.956 315.308C181.923 318.173 188.228 318.7 191.931 321.831ZM173.296 330.682C174.173 331.98 176.582 331.744 177.956 332.545C178.225 331.574 179.112 331.217 178.887 329.751C177.665 329.105 173.267 328.597 173.296 330.682ZM197.059 328.82C196.808 329.836 195.929 331.834 197.522 332.082C198.632 331.299 198.4 329.495 197.059 328.82ZM210.105 300.863C209.982 299.501 211.157 299.435 211.036 298.069C209.142 297.883 207.788 298.238 207.773 299.931C208.66 300.134 208.943 300.935 210.105 300.863ZM209.639 197.43C207.783 208.8 218.027 222.554 230.137 218.395C230.703 214.104 228.745 212.336 228.74 208.612C231.83 207.863 233.65 210.83 235.262 210.01C230.73 201.808 218.674 201.13 209.639 197.43ZM204.511 186.714C208.606 187.525 215.034 187.114 216.627 183.918C213.533 181.851 204.251 181.297 204.511 186.714ZM193.329 154.098C194.225 145.049 183.166 140.049 176.558 146.179C172.428 150.009 170.634 159.257 177.023 162.487C176.298 160.104 174.18 159.118 174.695 155.499C179.551 152.723 188.455 156.853 193.329 154.098ZM190.071 183.917C191.256 183.24 193.035 183.16 192.866 181.122C191.433 181.267 188.992 182.811 190.071 183.917ZM180.284 218.395C186.094 218.532 190.475 215.256 196.126 215.135C201.017 215.032 205.679 216.487 211.501 216.066C207.343 203.863 187.14 214.52 180.284 218.395ZM171.433 239.828C182.426 238.431 197.743 231.197 212.434 232.84C217.975 233.459 222.829 236.577 225.944 238.897C224.356 237.202 222.474 230.244 225.944 229.114C233.59 230.571 233.845 245.017 243.183 243.091C247.94 242.11 249.389 232.882 246.911 227.25C250.467 229.751 252.298 233.976 257.162 235.171C256.053 230.689 252.827 228.323 250.641 224.92C252.014 223.189 253.813 221.88 253.434 218.395C240.101 217.113 228.266 224.31 215.694 226.782C205.938 228.704 198.677 230.607 190.072 232.839C183.603 234.516 176.405 235.693 171.433 239.828ZM132.296 336.275C131.656 336.868 131.484 339.058 132.761 339.069C133.144 338.732 134.011 335.845 132.296 336.275ZM148.6 280.831C128.17 284.073 149.946 305.8 162.114 300.401C163.655 298.035 163.176 295.866 163.045 292.476C170.134 293.171 175.468 289.718 181.684 291.081C182.687 293.247 180.79 295.081 180.285 297.135C201.425 295.795 211.892 279.185 234.796 276.637C237.642 276.319 240.885 276.823 244.117 276.637C253.762 276.074 264.446 274.287 274.401 272.442C284.169 270.637 293.1 267.045 301.423 264.991C311.868 262.408 327.759 255.587 325.653 241.693C325.412 240.111 324.315 238.69 323.322 237.033C267.799 231.664 226.285 253.431 182.616 262.194C177.37 263.245 170.992 262.546 166.773 266.851C168.299 270.605 173.661 270.524 176.09 273.374C174.876 274.797 171.873 274.433 171.433 276.637C172.461 280.577 178.302 279.7 178.887 284.093C169.613 290.631 150.166 282.292 154.659 269.183C140.646 272.254 120.242 275.305 120.182 291.081C120.154 298.034 124.298 304.464 129.032 308.32C125.825 293.641 131.277 271.936 148.6 280.831ZM165.841 367.957C166.265 364.802 161.079 362.592 159.319 364.697C161.036 366.24 163.724 366.81 165.841 367.957ZM149.533 374.013C152.828 385.47 153.901 399.156 162.579 405.23C161.273 391.782 156.501 381.801 149.533 374.013ZM169.102 361.9C170.553 355.323 160.903 352.746 160.251 357.24C159.681 361.153 165.851 360.698 169.102 361.9ZM170.967 349.318C168.863 347.018 163.584 345.592 159.786 346.524C161.126 349.822 169.374 354.703 170.967 349.318ZM165.376 328.82C167.481 327.507 169.714 326.32 170.033 323.226C167.329 321.202 160.857 320.916 160.251 324.162C159.792 326.616 163.081 327.611 165.376 328.82ZM171.433 336.739C171.636 335.138 171.249 334.129 170.967 333.01C168.577 332.951 167.461 334.165 167.24 336.275C168.399 336.666 169.735 336.883 171.433 336.739ZM138.818 334.41C138.459 333.216 138.352 331.769 137.421 331.149C136.263 332.403 136.218 334.656 138.818 334.41ZM143.478 302.729C141.387 301.914 138.292 302.784 137.421 304.592C138.399 305.474 139.807 305.934 141.148 306.453C141.619 304.911 143.726 304.996 143.478 302.729ZM148.6 362.831C147.395 360.155 147.244 356.424 144.875 354.912C138.496 355.819 144.816 364.985 148.6 362.831ZM157.454 413.148C162.003 424.146 166.804 436.034 176.558 441.102C169.265 432.988 167.543 419.561 162.579 409.886C160.862 406.548 158.123 403.952 156.522 400.571C152.756 392.609 151.019 383.319 143.478 379.604C146.45 391.321 152.816 401.924 157.454 413.148ZM285.584 587.869C282.764 578.267 275.195 573.405 264.616 571.562C262.001 565.325 254.454 564.025 252.969 556.654C252.728 555.14 255.855 554.606 254.835 553.859C240.655 556.545 240.154 541.515 233.402 535.22C216.362 535.529 219.532 514.445 210.106 503.542C207.414 500.422 204.744 499.702 201.719 496.554C197.063 482.125 184.912 474.805 177.957 462.077C171.78 450.768 170.48 438.011 160.253 429.926C168.345 457.321 185.68 480.479 201.254 503.543C213.719 521.996 222.197 539.572 236.196 554.324C240.954 559.33 246.325 562.683 252.039 567.369C261.759 575.339 268.453 590.124 285.584 587.869ZM283.718 556.185C283.216 554.19 279.622 552.844 277.661 553.859C279.468 554.853 281.453 555.657 283.718 556.185ZM300.957 544.072C297.8 540.394 291.192 538.993 285.116 536.619C277.579 533.668 266.826 530.875 261.356 534.288C261.906 538.86 265.548 540.345 267.877 543.139C274.35 544.137 278.054 547.295 284.183 547.797C291.406 548.393 298.152 548.072 300.957 544.072ZM523.199 650.305C509.1 643.875 488.423 651.108 473.345 647.505C470.499 646.824 467.983 644.868 465.426 644.711C462.882 644.555 459.921 645.898 457.505 646.11C444.593 647.259 432.804 645.983 420.701 644.242C412.209 643.022 403.164 642.545 395.538 640.516C388.233 638.578 380.677 634.105 373.173 631.198C365.559 628.252 357.632 625.316 350.344 622.346C335.965 616.488 320.684 606.351 305.615 602.314C315.781 613.113 333.282 616.583 345.22 625.609C328.35 620.891 315.62 612.035 300.492 605.576C312.279 616.129 328.726 622.521 345.22 629.334C361.646 636.124 379.496 641.868 398.797 644.71C437.138 650.357 482.106 658.744 523.199 650.305ZM535.313 648.905C532.92 649 529.94 648.502 529.724 650.768C531.751 652.508 535.161 652.327 535.313 648.905ZM560.472 593.925C561.133 597.368 566.132 596.341 565.602 592.527C563.062 592.166 561.961 593.245 560.472 593.925ZM599.143 618.153C586.618 617.851 571.167 613.524 558.14 613.963C553.142 614.129 547.067 615.325 545.562 620.478C549.407 622.038 553.525 621.102 558.14 620.951C573.251 620.441 591.716 627.231 599.143 618.153ZM611.724 617.221C609.545 617.216 608.902 618.753 608.462 620.478C609.062 621.121 610.485 620.947 611.724 620.951C611.503 618.89 612.363 618.631 611.724 617.221ZM639.214 615.359C636.94 615.014 636.093 617.841 636.884 619.089C638.349 619.31 638.704 618.422 639.682 618.153C640.018 616.73 638.878 616.782 639.214 615.359ZM677.882 618.153C668.344 617.137 657.205 617.765 648.533 619.089C653.639 623.897 671.98 620.828 677.882 618.153ZM229.672 334.873C234.268 337.427 238.509 342.807 244.583 342.329C242.942 340.088 240.616 338.531 238.989 336.275C240.719 336.138 242.189 335.748 242.717 334.41C237.05 330.445 229.783 325.603 226.877 320.429C228.795 324.145 231.73 330.067 229.672 334.873ZM289.311 338.604C288.313 337.583 288.763 335.11 287.445 334.411C287.148 336.438 288.46 339.273 289.311 338.604ZM246.445 379.141C247.159 386.812 252.062 390.29 252.502 398.243C247.056 392.041 244.015 383.431 240.388 375.409C240.033 385.113 242.966 391.125 245.514 397.778C247.475 402.889 249.314 408.889 254.365 410.356C256.725 409.916 256.593 406.984 259.028 406.626C261.618 406.998 262.967 411.064 264.616 410.823C263.373 409.425 262.985 407.174 262.753 404.767C263.203 403.041 265.67 403.334 266.479 401.967C261.793 392.368 255.077 384.793 246.445 379.141Z" fill="black"/>
</g>
<defs>
<clipPath id="clip0_11_2">
<rect width="800" height="800" fill="white"/>
</clipPath>
</defs>
</svg>
