<svg width="800" height="800" viewBox="0 0 800 800" fill="none" xmlns="http://www.w3.org/2000/svg">
<g clip-path="url(#clip0_11_2)">
<path d="M680 0H120C53.7258 0 0 53.7258 0 120V680C0 746.274 53.7258 800 120 800H680C746.274 800 800 746.274 800 680V120C800 53.7258 746.274 0 680 0Z" fill="white"/>
<path d="M661.352 202.93C661.352 391.047 517.664 674.64 445.82 674.64C354.125 674.64 425.969 489.359 425.969 489.359L140.484 376.867C97.9454 121.633 661.352 63.9687 661.352 202.93Z" fill="url(#paint0_linear_11_2)"/>
<path d="M152.773 264.375C8.14062 309.75 316.313 65.8594 612.195 126.359C698.219 144.32 668.914 219.945 668.914 219.945C688.766 248.305 687.82 288.008 668.914 317.312C652.844 341.891 668.914 384.43 622.594 431.695C615.031 439.258 642.445 480.852 588.563 519.609C577.219 528.117 558.313 542.297 563.039 564.039C568.711 590.508 515.773 615.086 506.32 645.336C486.469 706.781 410.844 688.82 375.867 634.937C375.867 634.937 388.156 638.719 392.883 630.211C354.125 611.305 348.453 561.203 398.555 556.477C353.18 517.719 373.977 466.672 307.805 454.383C253.922 444.93 244.469 422.242 244.469 422.242C169.789 423.187 65.8047 373.086 152.773 264.375ZM636.773 298.406C643.391 285.172 651.898 266.266 646.227 251.141C633.938 263.43 620.703 274.773 606.523 285.172C616.922 287.062 628.266 291.789 636.773 298.406ZM616.922 376.867C596.125 400.5 570.602 405.227 570.602 405.227C589.508 413.734 613.141 417.516 616.922 376.867ZM559.258 533.789C559.258 533.789 546.023 533.789 546.023 537.57C544.133 563.094 559.258 533.789 559.258 533.789ZM582.891 461C552.641 478.016 518.609 490.305 484.578 497.867C604.633 513.937 597.07 452.492 582.891 461ZM462.836 549.859C462.836 549.859 487.414 556.477 508.211 551.75C494.031 536.625 462.836 549.859 462.836 549.859ZM495.922 599.961C503.484 611.305 522.391 589.562 522.391 580.109C521.445 561.203 466.617 576.328 466.617 576.328C466.617 576.328 489.305 589.562 495.922 599.961ZM470.398 644.391C455.273 644.391 439.203 643.445 424.078 640.609C432.586 651.953 450.547 666.133 470.398 644.391ZM446.766 604.687C421.242 593.344 405.172 593.344 405.172 593.344C405.172 593.344 424.078 609.414 446.766 604.687ZM551.695 433.586C501.594 409.008 458.109 445.875 385.32 462.891C412.734 470.453 507.266 468.562 551.695 433.586ZM440.148 409.008C440.148 409.008 373.031 413.734 385.32 402.391C425.969 363.633 561.148 418.461 616.922 326.766C591.398 304.078 562.094 313.531 536.57 327.711C582.891 357.016 532.789 338.109 506.32 343.781C459.055 354.18 367.359 381.594 348.453 419.406C405.172 426.023 440.148 409.008 440.148 409.008ZM314.422 413.734C308.75 418.461 284.172 414.68 284.172 414.68C298.352 422.242 321.039 438.313 314.422 413.734ZM570.602 263.43C403.281 277.609 297.406 322.984 276.609 382.539C403.281 372.141 353.18 310.695 570.602 263.43ZM173.57 377.812C175.461 323.93 263.375 239.797 220.836 330.547C202.875 369.305 224.617 400.5 243.523 370.25C336.164 223.727 529.953 280.445 614.086 230.344C529.953 189.695 200.984 305.969 285.117 268.156C528.063 156.609 638.664 217.109 638.664 189.695C638.664 139.594 473.234 111.234 252.031 208.602C524.281 155.664 551.695 184.023 506.32 188.75C173.57 222.781 116.852 322.039 173.57 377.812Z" fill="#4D8CBF"/>
<path d="M415.57 225.617C627.32 183.078 644.336 180.242 444.875 233.18C177.351 304.078 265.266 255.867 415.57 225.617Z" fill="url(#paint1_linear_11_2)"/>
<path d="M508.211 312.586C610.304 242.633 652.844 222.781 589.508 277.609C456.219 391.992 333.328 399.555 312.531 397.664C267.156 391.992 388.156 393.883 508.211 312.586Z" fill="url(#paint2_linear_11_2)"/>
<path d="M535.625 388.211C623.539 336.219 658.516 329.602 601.797 374.977C480.797 470.453 385.32 453.437 371.14 445.875C340.89 426.969 432.586 449.656 535.625 388.211Z" fill="url(#paint3_linear_11_2)"/>
<path d="M506.32 470.453C575.328 443.039 600.851 443.984 552.64 471.398C452.437 529.062 391.937 497.867 384.375 488.414C368.305 466.672 424.078 502.594 506.32 470.453Z" fill="url(#paint4_linear_11_2)"/>
<path d="M503.484 520.555C561.148 507.32 580.055 515.828 538.461 528.117C462.836 550.805 422.187 536.625 414.625 530.953C395.719 518.664 436.367 536.625 503.484 520.555Z" fill="url(#paint5_linear_11_2)"/>
<path d="M439.203 564.039C366.414 537.57 467.562 549.859 479.851 567.82C484.578 574.438 448.656 567.82 439.203 564.039Z" fill="url(#paint6_linear_11_2)"/>
<path d="M434.476 596.18C366.414 576.328 459.054 581.055 471.344 597.125C476.07 601.852 442.984 598.07 434.476 596.18Z" fill="url(#paint7_linear_11_2)"/>
<path d="M466.617 620.758C471.344 625.484 442.039 625.484 433.531 623.594C370.195 612.25 453.383 607.523 466.617 620.758Z" fill="url(#paint8_linear_11_2)"/>
</g>
<defs>
<linearGradient id="paint0_linear_11_2" x1="399.771" y1="129.315" x2="399.771" y2="674.64" gradientUnits="userSpaceOnUse">
<stop stop-color="white"/>
<stop offset="1" stop-color="#4D8CBF"/>
</linearGradient>
<linearGradient id="paint1_linear_11_2" x1="428.847" y1="193.573" x2="428.847" y2="269.927" gradientUnits="userSpaceOnUse">
<stop stop-color="white"/>
<stop offset="1" stop-color="#4D8CBF"/>
</linearGradient>
<linearGradient id="paint2_linear_11_2" x1="461.039" y1="246.078" x2="461.039" y2="397.889" gradientUnits="userSpaceOnUse">
<stop stop-color="white"/>
<stop offset="1" stop-color="#4D8CBF"/>
</linearGradient>
<linearGradient id="paint3_linear_11_2" x1="497.334" y1="344.702" x2="497.334" y2="452.074" gradientUnits="userSpaceOnUse">
<stop stop-color="white"/>
<stop offset="1" stop-color="#4D8CBF"/>
</linearGradient>
<linearGradient id="paint4_linear_11_2" x1="479.537" y1="450.359" x2="479.537" y2="505.342" gradientUnits="userSpaceOnUse">
<stop stop-color="white"/>
<stop offset="1" stop-color="#4D8CBF"/>
</linearGradient>
<linearGradient id="paint5_linear_11_2" x1="485.433" y1="513.877" x2="485.433" y2="540.558" gradientUnits="userSpaceOnUse">
<stop stop-color="white"/>
<stop offset="1" stop-color="#4D8CBF"/>
</linearGradient>
<linearGradient id="paint6_linear_11_2" x1="446.68" y1="548.746" x2="446.68" y2="570.638" gradientUnits="userSpaceOnUse">
<stop stop-color="white"/>
<stop offset="1" stop-color="#4D8CBF"/>
</linearGradient>
<linearGradient id="paint7_linear_11_2" x1="440.77" y1="583.098" x2="440.77" y2="599.407" gradientUnits="userSpaceOnUse">
<stop stop-color="white"/>
<stop offset="1" stop-color="#4D8CBF"/>
</linearGradient>
<linearGradient id="paint8_linear_11_2" x1="438.571" y1="612.746" x2="438.571" y2="624.775" gradientUnits="userSpaceOnUse">
<stop stop-color="white"/>
<stop offset="1" stop-color="#4D8CBF"/>
</linearGradient>
<clipPath id="clip0_11_2">
<rect width="800" height="800" fill="white"/>
</clipPath>
</defs>
</svg>
